# File created by Blade
# Date/Time:  Wed Sep 24 20:21:23 2014
# Frame Rate: 120.000 fps
#------------------------------------------------------
:FULLY-SPECIFIED
:DEGREES
211
root -8.670485 32.305738 -7.342519 13.805732 7.711037 12.366708
Spine 10.843765 -10.655722 -8.136072
Head -33.982218 3.702846 3.538139
LeftShoulder 10.099696 2.293011 9.491081
LeftArm 45.858378 24.447933 -67.650685
LeftForeArm -24.996497 -0.000000 14.531357
LeftHand -17.673633 0.000000 -8.677069
LeftHandThumb1 -26.253704 0.000000 33.147579
RightShoulder -13.421472 16.631154 -26.615107
RightArm -9.700113 -13.130984 79.684402
RightForeArm -28.626791 -0.000000 25.730065
RightHand -8.404595 -0.000000 0.285102
RightHandThumb1 -24.326973 -0.000000 -32.862282
LeftUpLeg -96.951977 22.864846 -25.097841
LeftLeg 94.094000 -0.000000 -0.000000
LeftFoot 13.652157 19.658096 -30.233517
LeftToeBase -0.713306 -0.000000 0.000000
RightUpLeg -29.065137 -5.522366 -3.022975
RightLeg 33.190339 -0.000000 -0.000000
RightFoot -18.126019 -15.857298 -5.776226
RightToeBase 1.113150 -0.000000 -0.000000
212
root -8.675613 32.304846 -7.367708 13.815794 7.685938 12.508649
Spine 11.167951 -10.746934 -8.378340
Head -34.331330 3.820151 3.609334
LeftShoulder 10.262238 2.229095 9.521631
LeftArm 45.674588 24.107179 -67.921522
LeftForeArm -25.972776 0.000000 14.305327
LeftHand -17.568500 -0.000000 -8.574714
LeftHandThumb1 -26.253704 0.000000 33.147579
RightShoulder -13.359539 16.712886 -26.544116
RightArm -9.608826 -13.159652 79.627850
RightForeArm -28.704705 -0.000000 25.937377
RightHand -8.492364 -0.000000 0.095280
RightHandThumb1 -24.326973 -0.000000 -32.862282
LeftUpLeg -98.208501 22.702618 -25.581504
LeftLeg 94.658687 -0.000000 -0.000000
LeftFoot 13.749809 19.605470 -30.156031
LeftToeBase -1.661355 -0.000000 0.000000
RightUpLeg -29.161048 -5.537784 -3.154944
RightLeg 33.304074 -0.000000 -0.000000
RightFoot -18.115251 -15.860207 -5.785615
RightToeBase 1.123732 -0.000000 -0.000000
213
root -8.680228 32.301451 -7.391443 13.819144 7.669551 12.644094
Spine 11.495294 -10.852767 -8.612107
Head -34.682060 3.917162 3.660978
LeftShoulder 10.388033 2.217244 9.553295
LeftArm 45.574880 23.791813 -68.131068
LeftForeArm -26.786125 0.000000 14.050413
LeftHand -17.438320 -0.000000 -8.644024
LeftHandThumb1 -26.253704 0.000000 33.147579
RightShoulder -13.349740 16.847386 -26.531491
RightArm -9.533583 -13.198145 79.622049
RightForeArm -28.711408 -0.000000 26.092204
RightHand -8.468726 -0.000000 -0.049740
RightHandThumb1 -24.326973 -0.000000 -32.862282
LeftUpLeg -99.443429 22.525170 -25.994589
LeftLeg 95.255281 -0.000000 -0.000000
LeftFoot 13.802765 19.578942 -30.484336
LeftToeBase -1.143469 -0.000000 0.000000
RightUpLeg -29.252601 -5.534400 -3.284641
RightLeg 33.432285 -0.000000 -0.000000
RightFoot -18.139989 -15.886609 -5.740117
RightToeBase 1.074089 -0.000000 -0.000000
214
root -8.681197 32.301840 -7.414696 13.815533 7.649003 12.828118
Spine 11.838686 -10.956792 -8.923598
Head -35.008235 4.065978 3.730405
LeftShoulder 10.556660 2.091323 9.592930
LeftArm 45.353607 23.459033 -68.398330
LeftForeArm -27.666737 -0.000000 13.753712
LeftHand -17.209287 0.000000 -8.770061
LeftHandThumb1 -26.253704 0.000000 33.147579
RightShoulder -13.329282 16.945501 -26.476677
RightArm -9.419165 -13.227134 79.608014
RightForeArm -28.751452 0.000000 26.228239
RightHand -8.438622 -0.000000 0.191021
RightHandThumb1 -24.326973 -0.000000 -32.862282
LeftUpLeg -100.638183 22.334318 -26.503085
LeftLeg 95.822750 -0.000000 -0.000000
LeftFoot 13.745257 19.543786 -30.566717
LeftToeBase -0.521522 -0.000000 0.000000
RightUpLeg -29.323632 -5.512842 -3.481282
RightLeg 33.554621 -0.000000 -0.000000
RightFoot -18.153584 -15.925462 -5.714109
RightToeBase 1.040534 -0.000000 -0.000000
215
root -8.684948 32.302261 -7.437327 13.818750 7.643170 13.020462
Spine 12.179499 -11.088868 -9.262728
Head -35.332510 4.241713 3.859468
LeftShoulder 10.718308 2.095015 9.673550
LeftArm 45.175958 23.037702 -68.679816
LeftForeArm -28.924104 -0.000000 13.722021
LeftHand -17.719728 -0.000000 -8.416026
LeftHandThumb1 -26.253704 0.000000 33.147579
RightShoulder -13.299429 17.053072 -26.384242
RightArm -9.312311 -13.280045 79.586057
RightForeArm -28.849729 -0.000000 26.378356
RightHand -8.478086 0.000000 0.066632
RightHandThumb1 -24.326973 -0.000000 -32.862282
LeftUpLeg -101.804503 22.125621 -27.012412
LeftLeg 96.347027 -0.000000 -0.000000
LeftFoot 13.889187 19.427216 -30.462722
LeftToeBase -1.650514 -0.000000 0.000000
RightUpLeg -29.404201 -5.510533 -3.679897
RightLeg 33.692419 -0.000000 -0.000000
RightFoot -18.200138 -15.932502 -5.616430
RightToeBase 1.093952 -0.000000 -0.000000
216
root -8.685948 32.300482 -7.457133 13.812705 7.654819 13.184257
Spine 12.510214 -11.242895 -9.531950
Head -35.658102 4.357437 3.900203
LeftShoulder 10.830013 2.103874 9.728562
LeftArm 45.108180 22.703689 -68.878772
LeftForeArm -29.986976 0.000000 13.500622
LeftHand -17.894032 -0.000000 -8.048776
LeftHandThumb1 -26.253704 0.000000 33.147579
RightShoulder -13.275735 17.091426 -26.330923
RightArm -9.129932 -13.318539 79.570433
RightForeArm -28.927370 -0.000000 26.499626
RightHand -8.501130 -0.000000 -0.081867
RightHandThumb1 -24.326973 -0.000000 -32.862282
LeftUpLeg -102.954883 21.903804 -27.435258
LeftLeg 96.934741 -0.000000 -0.000000
LeftFoot 13.988208 19.323701 -30.628538
LeftToeBase -1.033375 -0.000000 0.000000
RightUpLeg -29.466693 -5.552324 -3.846075
RightLeg 33.821393 -0.000000 -0.000000
RightFoot -18.267536 -15.892689 -5.531595
RightToeBase 1.125158 -0.000000 -0.000000
217
root -8.682966 32.298869 -7.475131 13.787952 7.690098 13.356004
Spine 12.865342 -11.445900 -9.792342
Head -35.951626 4.532480 3.906614
LeftShoulder 10.872298 2.151468 9.829245
LeftArm 45.171691 22.412774 -69.086597
LeftForeArm -31.221519 -0.000000 13.211978
LeftHand -17.975071 -0.000000 -7.836099
LeftHandThumb1 -26.253704 0.000000 33.147579
RightShoulder -13.253245 17.245513 -26.316961
RightArm -9.031906 -13.384324 79.579642
RightForeArm -28.998166 -0.000000 26.592099
RightHand -8.487733 -0.000000 -0.225992
RightHandThumb1 -24.326973 -0.000000 -32.862282
LeftUpLeg -104.058419 21.640848 -27.880615
LeftLeg 97.508242 -0.000000 -0.000000
LeftFoot 14.027255 19.230987 -30.707277
LeftToeBase -0.986966 -0.000000 0.000000
RightUpLeg -29.525731 -5.692152 -4.006502
RightLeg 33.997451 -0.000000 -0.000000
RightFoot -18.346251 -15.795263 -5.467861
RightToeBase 1.146184 -0.000000 -0.000000
218
root -8.682286 32.297305 -7.493930 13.773887 7.724088 13.503410
Spine 13.205377 -11.627486 -10.020600
Head -36.276052 4.706096 3.872807
LeftShoulder 11.024022 2.135492 9.827931
LeftArm 44.976192 21.911741 -69.414599
LeftForeArm -32.191376 0.000000 12.992324
LeftHand -18.452062 -0.000000 -8.333078
LeftHandThumb1 -26.253704 0.000000 33.147579
RightShoulder -13.244648 17.360628 -26.289774
RightArm -8.911709 -13.400174 79.565609
RightForeArm -29.058826 -0.000000 26.710096
RightHand -8.552846 -0.000000 -0.198517
RightHandThumb1 -24.326973 -0.000000 -32.862282
LeftUpLeg -105.170655 21.378180 -28.296826
LeftLeg 98.078394 -0.000000 -0.000000
LeftFoot 14.189142 19.136968 -30.521519
LeftToeBase -0.866900 -0.000000 0.000000
RightUpLeg -29.585813 -5.758915 -4.154685
RightLeg 34.145188 -0.000000 -0.000000
RightFoot -18.397915 -15.747097 -5.385952
RightToeBase 1.115165 -0.000000 -0.000000
219
root -8.681485 32.297467 -7.513715 13.754107 7.761660 13.660725
Spine 13.563395 -11.837368 -10.277549
Head -36.603172 4.844988 3.887160
LeftShoulder 11.196680 2.071281 9.827895
LeftArm 44.672526 21.323585 -69.838944
LeftForeArm -33.105339 -0.000000 12.732486
LeftHand -18.365149 -0.000000 -8.404331
LeftHandThumb1 -26.253704 0.000000 33.147579
RightShoulder -13.216939 17.420418 -26.234975
RightArm -8.732380 -13.436606 79.550253
RightForeArm -29.090822 0.000000 26.869949
RightHand -8.492843 -0.000000 -0.044758
RightHandThumb1 -24.326973 -0.000000 -32.862282
LeftUpLeg -106.256830 21.106750 -28.748518
LeftLeg 98.624374 -0.000000 -0.000000
LeftFoot 14.243687 19.085470 -30.355903
LeftToeBase -0.566763 -0.000000 0.000000
RightUpLeg -29.633974 -5.868245 -4.307902
RightLeg 34.277197 -0.000000 -0.000000
RightFoot -18.459118 -15.636349 -5.296235
RightToeBase 1.144471 -0.000000 -0.000000
220
root -8.679188 32.296578 -7.528700 13.705633 7.794312 13.810920
Spine 13.953036 -12.034755 -10.540051
Head -36.940201 4.971141 3.940140
LeftShoulder 11.308477 2.029855 9.843566
LeftArm 44.475636 20.826227 -70.217107
LeftForeArm -34.596978 -0.000000 12.467240
LeftHand -18.573321 0.000000 -7.880822
LeftHandThumb1 -26.253704 0.000000 33.147579
RightShoulder -13.211380 17.562217 -26.174012
RightArm -8.632069 -13.512845 79.518801
RightForeArm -29.129432 0.000000 27.052196
RightHand -8.510617 -0.000000 0.064469
RightHandThumb1 -24.326973 -0.000000 -32.862282
LeftUpLeg -107.311764 20.853531 -29.138137
LeftLeg 99.203069 -0.000000 -0.000000
LeftFoot 14.504502 18.960939 -30.321886
LeftToeBase -0.730888 -0.000000 0.000000
RightUpLeg -29.646226 -5.924517 -4.467749
RightLeg 34.421325 -0.000000 -0.000000
RightFoot -18.543216 -15.587606 -5.176249
RightToeBase 1.182265 -0.000000 -0.000000
